<?xml version="1.0" encoding="UTF-8"?>
<!DOCTYPE svg PUBLIC "-//W3C//DTD SVG 1.1//EN" "http://www.w3.org/Graphics/SVG/1.1/DTD/svg11.dtd">
<svg xmlns="http://www.w3.org/2000/svg" version="1.1" width="100px" height="100px" style="shape-rendering:geometricPrecision; text-rendering:geometricPrecision; image-rendering:optimizeQuality; fill-rule:evenodd; clip-rule:evenodd" xmlns:xlink="http://www.w3.org/1999/xlink">
<g id="arrow-icon-svg"><path style="opacity:0.941" fill="#000000" d="M 10.5,-0.5 C 14.8333,-0.5 19.1667,-0.5 23.5,-0.5C 38.8933,2.28204 51.7266,9.61537 62,21.5C 68.7188,31.8253 71.8855,43.1587 71.5,55.5C 78.5316,55.1697 85.5316,55.503 92.5,56.5C 81.5715,70.7142 70.9048,85.0475 60.5,99.5C 59.8333,99.5 59.1667,99.5 58.5,99.5C 48.0952,85.0475 37.4285,70.7142 26.5,56.5C 33.1335,55.5033 39.8002,55.17 46.5,55.5C 47.4828,35.3025 39.8161,19.4692 23.5,8C 19.6366,6.26776 15.6366,4.93442 11.5,4C 10.6198,2.64387 10.2865,1.14387 10.5,-0.5 Z"/></g>
</svg>
